<mxfile host="app.diagrams.net" agent="Mozilla/5.0 (Windows NT 10.0; Win64; x64) AppleWebKit/537.36 (KHTML, like Gecko) Chrome/134.0.0.0 Safari/537.36" version="26.2.3">
  <diagram name="1 oldal" id="f-KKNjmCeCIaSrps0EN3">
    <mxGraphModel dx="2895" dy="1103" grid="1" gridSize="10" guides="1" tooltips="1" connect="1" arrows="1" fold="1" page="1" pageScale="1" pageWidth="827" pageHeight="1169" math="0" shadow="0">
      <root>
        <mxCell id="0" />
        <mxCell id="1" parent="0" />
        <mxCell id="nzvuutYlS2IMm9SEW8wx-1" value="Tanszék" style="rounded=0;whiteSpace=wrap;html=1;" vertex="1" parent="1">
          <mxGeometry x="-375" y="490" width="180" height="90" as="geometry" />
        </mxCell>
        <mxCell id="nzvuutYlS2IMm9SEW8wx-2" value="Oktató" style="rounded=0;whiteSpace=wrap;html=1;" vertex="1" parent="1">
          <mxGeometry x="80" y="490" width="180" height="90" as="geometry" />
        </mxCell>
        <mxCell id="nzvuutYlS2IMm9SEW8wx-3" value="Tantárgy" style="rounded=0;whiteSpace=wrap;html=1;" vertex="1" parent="1">
          <mxGeometry x="550" y="490" width="180" height="90" as="geometry" />
        </mxCell>
        <mxCell id="nzvuutYlS2IMm9SEW8wx-4" value="&lt;u&gt;kód&lt;/u&gt;" style="ellipse;whiteSpace=wrap;html=1;" vertex="1" parent="1">
          <mxGeometry x="-450" y="600" width="100" height="66.67" as="geometry" />
        </mxCell>
        <mxCell id="nzvuutYlS2IMm9SEW8wx-5" value="név" style="ellipse;whiteSpace=wrap;html=1;" vertex="1" parent="1">
          <mxGeometry x="-340" y="600" width="100" height="66.67" as="geometry" />
        </mxCell>
        <mxCell id="nzvuutYlS2IMm9SEW8wx-6" value="kar" style="ellipse;whiteSpace=wrap;html=1;" vertex="1" parent="1">
          <mxGeometry x="-220" y="600" width="100" height="66.67" as="geometry" />
        </mxCell>
        <mxCell id="nzvuutYlS2IMm9SEW8wx-7" value="&lt;u&gt;neptunkód&lt;/u&gt;" style="ellipse;whiteSpace=wrap;html=1;" vertex="1" parent="1">
          <mxGeometry x="415" y="600" width="100" height="66.67" as="geometry" />
        </mxCell>
        <mxCell id="nzvuutYlS2IMm9SEW8wx-8" value="név" style="ellipse;whiteSpace=wrap;html=1;" vertex="1" parent="1">
          <mxGeometry x="525" y="600" width="100" height="66.67" as="geometry" />
        </mxCell>
        <mxCell id="nzvuutYlS2IMm9SEW8wx-9" value="kredit" style="ellipse;whiteSpace=wrap;html=1;" vertex="1" parent="1">
          <mxGeometry x="645" y="600" width="100" height="66.67" as="geometry" />
        </mxCell>
        <mxCell id="nzvuutYlS2IMm9SEW8wx-10" value="&lt;u&gt;neptunkód&lt;/u&gt;" style="ellipse;whiteSpace=wrap;html=1;" vertex="1" parent="1">
          <mxGeometry x="5" y="600" width="100" height="66.67" as="geometry" />
        </mxCell>
        <mxCell id="nzvuutYlS2IMm9SEW8wx-11" value="név" style="ellipse;whiteSpace=wrap;html=1;" vertex="1" parent="1">
          <mxGeometry x="115" y="600" width="100" height="66.67" as="geometry" />
        </mxCell>
        <mxCell id="nzvuutYlS2IMm9SEW8wx-12" value="beosztás" style="ellipse;whiteSpace=wrap;html=1;" vertex="1" parent="1">
          <mxGeometry x="235" y="600" width="100" height="66.67" as="geometry" />
        </mxCell>
        <mxCell id="nzvuutYlS2IMm9SEW8wx-13" value="lezárás módja" style="ellipse;whiteSpace=wrap;html=1;" vertex="1" parent="1">
          <mxGeometry x="765" y="600" width="100" height="66.67" as="geometry" />
        </mxCell>
        <mxCell id="nzvuutYlS2IMm9SEW8wx-14" value="" style="endArrow=none;html=1;rounded=0;entryX=0.006;entryY=0.97;entryDx=0;entryDy=0;entryPerimeter=0;exitX=0.533;exitY=0.03;exitDx=0;exitDy=0;exitPerimeter=0;" edge="1" parent="1" source="nzvuutYlS2IMm9SEW8wx-4" target="nzvuutYlS2IMm9SEW8wx-1">
          <mxGeometry width="50" height="50" relative="1" as="geometry">
            <mxPoint x="-425" y="620" as="sourcePoint" />
            <mxPoint x="-375" y="570" as="targetPoint" />
          </mxGeometry>
        </mxCell>
        <mxCell id="nzvuutYlS2IMm9SEW8wx-15" value="" style="endArrow=none;html=1;rounded=0;entryX=0.483;entryY=0.996;entryDx=0;entryDy=0;entryPerimeter=0;exitX=0.53;exitY=-0.015;exitDx=0;exitDy=0;exitPerimeter=0;" edge="1" parent="1" source="nzvuutYlS2IMm9SEW8wx-5" target="nzvuutYlS2IMm9SEW8wx-1">
          <mxGeometry width="50" height="50" relative="1" as="geometry">
            <mxPoint x="-310" y="605" as="sourcePoint" />
            <mxPoint x="-287" y="580" as="targetPoint" />
          </mxGeometry>
        </mxCell>
        <mxCell id="nzvuutYlS2IMm9SEW8wx-16" value="" style="endArrow=none;html=1;rounded=0;entryX=0.965;entryY=0.993;entryDx=0;entryDy=0;entryPerimeter=0;exitX=0.32;exitY=0.05;exitDx=0;exitDy=0;exitPerimeter=0;" edge="1" parent="1" source="nzvuutYlS2IMm9SEW8wx-6" target="nzvuutYlS2IMm9SEW8wx-1">
          <mxGeometry width="50" height="50" relative="1" as="geometry">
            <mxPoint x="-209" y="599" as="sourcePoint" />
            <mxPoint x="-210" y="580" as="targetPoint" />
          </mxGeometry>
        </mxCell>
        <mxCell id="nzvuutYlS2IMm9SEW8wx-17" value="" style="endArrow=none;html=1;rounded=0;entryX=0.037;entryY=0.981;entryDx=0;entryDy=0;entryPerimeter=0;exitX=0.607;exitY=0.04;exitDx=0;exitDy=0;exitPerimeter=0;" edge="1" parent="1" source="nzvuutYlS2IMm9SEW8wx-10" target="nzvuutYlS2IMm9SEW8wx-2">
          <mxGeometry width="50" height="50" relative="1" as="geometry">
            <mxPoint x="60.5" y="605" as="sourcePoint" />
            <mxPoint x="83.5" y="580" as="targetPoint" />
          </mxGeometry>
        </mxCell>
        <mxCell id="nzvuutYlS2IMm9SEW8wx-18" value="" style="endArrow=none;html=1;rounded=0;entryX=0.489;entryY=1.015;entryDx=0;entryDy=0;entryPerimeter=0;exitX=0.53;exitY=-0.015;exitDx=0;exitDy=0;exitPerimeter=0;" edge="1" parent="1" source="nzvuutYlS2IMm9SEW8wx-11" target="nzvuutYlS2IMm9SEW8wx-2">
          <mxGeometry width="50" height="50" relative="1" as="geometry">
            <mxPoint x="170.5" y="602" as="sourcePoint" />
            <mxPoint x="169.5" y="583" as="targetPoint" />
          </mxGeometry>
        </mxCell>
        <mxCell id="nzvuutYlS2IMm9SEW8wx-19" value="" style="endArrow=none;html=1;rounded=0;entryX=0.976;entryY=0.97;entryDx=0;entryDy=0;entryPerimeter=0;exitX=0.353;exitY=0.045;exitDx=0;exitDy=0;exitPerimeter=0;" edge="1" parent="1" source="nzvuutYlS2IMm9SEW8wx-12" target="nzvuutYlS2IMm9SEW8wx-2">
          <mxGeometry width="50" height="50" relative="1" as="geometry">
            <mxPoint x="269.5" y="606" as="sourcePoint" />
            <mxPoint x="256.5" y="582" as="targetPoint" />
          </mxGeometry>
        </mxCell>
        <mxCell id="nzvuutYlS2IMm9SEW8wx-20" value="" style="endArrow=none;html=1;rounded=0;entryX=0.015;entryY=0.989;entryDx=0;entryDy=0;entryPerimeter=0;exitX=0.787;exitY=0.085;exitDx=0;exitDy=0;exitPerimeter=0;" edge="1" parent="1" source="nzvuutYlS2IMm9SEW8wx-7" target="nzvuutYlS2IMm9SEW8wx-3">
          <mxGeometry width="50" height="50" relative="1" as="geometry">
            <mxPoint x="490" y="606" as="sourcePoint" />
            <mxPoint x="511" y="581" as="targetPoint" />
          </mxGeometry>
        </mxCell>
        <mxCell id="nzvuutYlS2IMm9SEW8wx-21" value="" style="endArrow=none;html=1;rounded=0;entryX=0.163;entryY=0.981;entryDx=0;entryDy=0;entryPerimeter=0;exitX=0.55;exitY=-0.01;exitDx=0;exitDy=0;exitPerimeter=0;" edge="1" parent="1" source="nzvuutYlS2IMm9SEW8wx-8" target="nzvuutYlS2IMm9SEW8wx-3">
          <mxGeometry width="50" height="50" relative="1" as="geometry">
            <mxPoint x="592" y="602" as="sourcePoint" />
            <mxPoint x="592" y="584" as="targetPoint" />
          </mxGeometry>
        </mxCell>
        <mxCell id="nzvuutYlS2IMm9SEW8wx-22" value="" style="endArrow=none;html=1;rounded=0;entryX=0.761;entryY=0.97;entryDx=0;entryDy=0;entryPerimeter=0;exitX=0.447;exitY=0.005;exitDx=0;exitDy=0;exitPerimeter=0;" edge="1" parent="1" source="nzvuutYlS2IMm9SEW8wx-9" target="nzvuutYlS2IMm9SEW8wx-3">
          <mxGeometry width="50" height="50" relative="1" as="geometry">
            <mxPoint x="694" y="606" as="sourcePoint" />
            <mxPoint x="680" y="580" as="targetPoint" />
          </mxGeometry>
        </mxCell>
        <mxCell id="nzvuutYlS2IMm9SEW8wx-23" value="" style="endArrow=none;html=1;rounded=0;entryX=0.98;entryY=0.981;entryDx=0;entryDy=0;entryPerimeter=0;exitX=0.153;exitY=0.1;exitDx=0;exitDy=0;exitPerimeter=0;" edge="1" parent="1" source="nzvuutYlS2IMm9SEW8wx-13" target="nzvuutYlS2IMm9SEW8wx-3">
          <mxGeometry width="50" height="50" relative="1" as="geometry">
            <mxPoint x="733" y="603" as="sourcePoint" />
            <mxPoint x="730" y="580" as="targetPoint" />
          </mxGeometry>
        </mxCell>
        <mxCell id="nzvuutYlS2IMm9SEW8wx-24" value="Tartozik" style="rhombus;whiteSpace=wrap;html=1;" vertex="1" parent="1">
          <mxGeometry x="-90" y="500" width="80" height="80" as="geometry" />
        </mxCell>
        <mxCell id="nzvuutYlS2IMm9SEW8wx-25" value="Oktatja" style="rhombus;whiteSpace=wrap;html=1;" vertex="1" parent="1">
          <mxGeometry x="370" y="495" width="80" height="80" as="geometry" />
        </mxCell>
        <mxCell id="nzvuutYlS2IMm9SEW8wx-26" value="" style="endArrow=none;html=1;rounded=0;entryX=0.052;entryY=0.515;entryDx=0;entryDy=0;entryPerimeter=0;exitX=0.996;exitY=0.569;exitDx=0;exitDy=0;exitPerimeter=0;" edge="1" parent="1" source="nzvuutYlS2IMm9SEW8wx-1" target="nzvuutYlS2IMm9SEW8wx-24">
          <mxGeometry width="50" height="50" relative="1" as="geometry">
            <mxPoint x="-195" y="525" as="sourcePoint" />
            <mxPoint x="-145" y="475" as="targetPoint" />
          </mxGeometry>
        </mxCell>
        <mxCell id="nzvuutYlS2IMm9SEW8wx-27" value="" style="endArrow=none;html=1;rounded=0;entryX=-0.008;entryY=0.558;entryDx=0;entryDy=0;entryPerimeter=0;exitX=0.963;exitY=0.503;exitDx=0;exitDy=0;exitPerimeter=0;" edge="1" parent="1" source="nzvuutYlS2IMm9SEW8wx-24" target="nzvuutYlS2IMm9SEW8wx-2">
          <mxGeometry width="50" height="50" relative="1" as="geometry">
            <mxPoint x="-3" y="548" as="sourcePoint" />
            <mxPoint x="105" y="551" as="targetPoint" />
          </mxGeometry>
        </mxCell>
        <mxCell id="nzvuutYlS2IMm9SEW8wx-28" value="1&lt;span style=&quot;color: rgba(0, 0, 0, 0); font-family: monospace; font-size: 0px; text-align: start; text-wrap-mode: nowrap;&quot;&gt;%3CmxGraphModel%3E%3Croot%3E%3CmxCell%20id%3D%220%22%2F%3E%3CmxCell%20id%3D%221%22%20parent%3D%220%22%2F%3E%3CmxCell%20id%3D%222%22%20value%3D%22%22%20style%3D%22endArrow%3Dnone%3Bhtml%3D1%3Brounded%3D0%3BentryX%3D0.064%3BentryY%3D0.515%3BentryDx%3D0%3BentryDy%3D0%3BentryPerimeter%3D0%3BexitX%3D1.009%3BexitY%3D0.537%3BexitDx%3D0%3BexitDy%3D0%3BexitPerimeter%3D0%3B%22%20edge%3D%221%22%20parent%3D%221%22%3E%3CmxGeometry%20width%3D%2250%22%20height%3D%2250%22%20relative%3D%221%22%20as%3D%22geometry%22%3E%3CmxPoint%20x%3D%2267%22%20y%3D%22598%22%20as%3D%22sourcePoint%22%2F%3E%3CmxPoint%20x%3D%22175%22%20y%3D%22601%22%20as%3D%22targetPoint%22%2F%3E%3C%2FmxGeometry%3E%3C%2FmxCell%3E%3C%2Froot%3E%3C%2FmxGraphModel%3E&lt;/span&gt;" style="text;html=1;align=center;verticalAlign=middle;whiteSpace=wrap;rounded=0;" vertex="1" parent="1">
          <mxGeometry x="-170" y="540" width="60" height="30" as="geometry" />
        </mxCell>
        <mxCell id="nzvuutYlS2IMm9SEW8wx-29" value="N" style="text;html=1;align=center;verticalAlign=middle;whiteSpace=wrap;rounded=0;" vertex="1" parent="1">
          <mxGeometry y="540" width="60" height="30" as="geometry" />
        </mxCell>
        <mxCell id="nzvuutYlS2IMm9SEW8wx-30" value="N" style="text;html=1;align=center;verticalAlign=middle;whiteSpace=wrap;rounded=0;" vertex="1" parent="1">
          <mxGeometry x="300" y="540" width="60" height="30" as="geometry" />
        </mxCell>
        <mxCell id="nzvuutYlS2IMm9SEW8wx-31" value="M" style="text;html=1;align=center;verticalAlign=middle;whiteSpace=wrap;rounded=0;" vertex="1" parent="1">
          <mxGeometry x="470" y="540" width="60" height="30" as="geometry" />
        </mxCell>
        <mxCell id="nzvuutYlS2IMm9SEW8wx-32" value="" style="endArrow=none;html=1;rounded=0;entryX=0;entryY=0.5;entryDx=0;entryDy=0;exitX=1;exitY=0.5;exitDx=0;exitDy=0;" edge="1" parent="1" source="nzvuutYlS2IMm9SEW8wx-25" target="nzvuutYlS2IMm9SEW8wx-3">
          <mxGeometry width="50" height="50" relative="1" as="geometry">
            <mxPoint x="450" y="534.76" as="sourcePoint" />
            <mxPoint x="542" y="534.76" as="targetPoint" />
          </mxGeometry>
        </mxCell>
        <mxCell id="nzvuutYlS2IMm9SEW8wx-33" value="" style="endArrow=none;html=1;rounded=0;entryX=0.026;entryY=0.505;entryDx=0;entryDy=0;entryPerimeter=0;exitX=1;exitY=0.5;exitDx=0;exitDy=0;" edge="1" parent="1" source="nzvuutYlS2IMm9SEW8wx-2" target="nzvuutYlS2IMm9SEW8wx-25">
          <mxGeometry width="50" height="50" relative="1" as="geometry">
            <mxPoint x="278" y="534.76" as="sourcePoint" />
            <mxPoint x="370" y="534.76" as="targetPoint" />
          </mxGeometry>
        </mxCell>
        <mxCell id="nzvuutYlS2IMm9SEW8wx-34" value="félév/tanév" style="ellipse;whiteSpace=wrap;html=1;" vertex="1" parent="1">
          <mxGeometry x="380" y="400" width="70" height="46.67" as="geometry" />
        </mxCell>
        <mxCell id="nzvuutYlS2IMm9SEW8wx-35" value="" style="endArrow=none;html=1;rounded=0;exitX=0.49;exitY=0.035;exitDx=0;exitDy=0;exitPerimeter=0;entryX=0.451;entryY=0.999;entryDx=0;entryDy=0;entryPerimeter=0;" edge="1" parent="1" source="nzvuutYlS2IMm9SEW8wx-25" target="nzvuutYlS2IMm9SEW8wx-34">
          <mxGeometry width="50" height="50" relative="1" as="geometry">
            <mxPoint x="410" y="495" as="sourcePoint" />
            <mxPoint x="460" y="445" as="targetPoint" />
          </mxGeometry>
        </mxCell>
        <mxCell id="nzvuutYlS2IMm9SEW8wx-36" value="Tanszék" style="shape=table;startSize=30;container=1;collapsible=1;childLayout=tableLayout;fixedRows=1;rowLines=0;fontStyle=1;align=center;resizeLast=1;html=1;" vertex="1" parent="1">
          <mxGeometry x="-382.4" y="770" width="212.4" height="160" as="geometry" />
        </mxCell>
        <mxCell id="nzvuutYlS2IMm9SEW8wx-37" value="" style="shape=tableRow;horizontal=0;startSize=0;swimlaneHead=0;swimlaneBody=0;fillColor=none;collapsible=0;dropTarget=0;points=[[0,0.5],[1,0.5]];portConstraint=eastwest;top=0;left=0;right=0;bottom=1;" vertex="1" parent="nzvuutYlS2IMm9SEW8wx-36">
          <mxGeometry y="30" width="212.4" height="30" as="geometry" />
        </mxCell>
        <mxCell id="nzvuutYlS2IMm9SEW8wx-38" value="&lt;span style=&quot;color: rgba(0, 0, 0, 0); font-family: monospace; font-size: 0px; font-weight: 400; text-align: start; text-wrap-mode: nowrap;&quot;&gt;%3CmxGraphModel%3E%3Croot%3E%3CmxCell%20id%3D%220%22%2F%3E%3CmxCell%20id%3D%221%22%20parent%3D%220%22%2F%3E%3CmxCell%20id%3D%222%22%20value%3D%22PK%22%20style%3D%22shape%3DpartialRectangle%3Bconnectable%3D0%3BfillColor%3Dnone%3Btop%3D0%3Bleft%3D0%3Bbottom%3D0%3Bright%3D0%3BfontStyle%3D1%3Boverflow%3Dhidden%3BwhiteSpace%3Dwrap%3Bhtml%3D1%3B%22%20vertex%3D%221%22%20parent%3D%221%22%3E%3CmxGeometry%20x%3D%22-91.2%22%20y%3D%22870%22%20width%3D%2230%22%20height%3D%2230%22%20as%3D%22geometry%22%3E%3CmxRectangle%20width%3D%2230%22%20height%3D%2230%22%20as%3D%22alternateBounds%22%2F%3E%3C%2FmxGeometry%3E%3C%2FmxCell%3E%3C%2Froot%3E%3C%2FmxGraphModel%3EPKPK&lt;/span&gt;" style="shape=partialRectangle;connectable=0;fillColor=none;top=0;left=0;bottom=0;right=0;fontStyle=1;overflow=hidden;whiteSpace=wrap;html=1;" vertex="1" parent="nzvuutYlS2IMm9SEW8wx-37">
          <mxGeometry width="72.40000000000009" height="30" as="geometry">
            <mxRectangle width="72.40000000000009" height="30" as="alternateBounds" />
          </mxGeometry>
        </mxCell>
        <mxCell id="nzvuutYlS2IMm9SEW8wx-39" value="&lt;span style=&quot;text-align: left; text-decoration-line: underline;&quot;&gt;kód&lt;/span&gt;" style="shape=partialRectangle;connectable=0;fillColor=none;top=0;left=0;bottom=0;right=0;fontStyle=1;overflow=hidden;whiteSpace=wrap;html=1;" vertex="1" parent="nzvuutYlS2IMm9SEW8wx-37">
          <mxGeometry x="72.40000000000009" width="70" height="30" as="geometry">
            <mxRectangle width="70" height="30" as="alternateBounds" />
          </mxGeometry>
        </mxCell>
        <mxCell id="nzvuutYlS2IMm9SEW8wx-40" value="&amp;nbsp;C(10)" style="shape=partialRectangle;connectable=0;fillColor=none;top=0;left=0;bottom=0;right=0;align=left;spacingLeft=6;fontStyle=5;overflow=hidden;whiteSpace=wrap;html=1;" vertex="1" parent="nzvuutYlS2IMm9SEW8wx-37">
          <mxGeometry x="142.4000000000001" width="69.99999999999991" height="30" as="geometry">
            <mxRectangle width="69.99999999999991" height="30" as="alternateBounds" />
          </mxGeometry>
        </mxCell>
        <mxCell id="nzvuutYlS2IMm9SEW8wx-41" value="" style="shape=tableRow;horizontal=0;startSize=0;swimlaneHead=0;swimlaneBody=0;fillColor=none;collapsible=0;dropTarget=0;points=[[0,0.5],[1,0.5]];portConstraint=eastwest;top=0;left=0;right=0;bottom=0;" vertex="1" parent="nzvuutYlS2IMm9SEW8wx-36">
          <mxGeometry y="60" width="212.4" height="40" as="geometry" />
        </mxCell>
        <mxCell id="nzvuutYlS2IMm9SEW8wx-42" style="shape=partialRectangle;connectable=0;fillColor=none;top=0;left=0;bottom=0;right=0;editable=1;overflow=hidden;whiteSpace=wrap;html=1;" vertex="1" parent="nzvuutYlS2IMm9SEW8wx-41">
          <mxGeometry width="72.40000000000009" height="40" as="geometry">
            <mxRectangle width="72.40000000000009" height="40" as="alternateBounds" />
          </mxGeometry>
        </mxCell>
        <mxCell id="nzvuutYlS2IMm9SEW8wx-43" value="&lt;span style=&quot;text-align: left;&quot;&gt;név&lt;/span&gt;" style="shape=partialRectangle;connectable=0;fillColor=none;top=0;left=0;bottom=0;right=0;editable=1;overflow=hidden;whiteSpace=wrap;html=1;" vertex="1" parent="nzvuutYlS2IMm9SEW8wx-41">
          <mxGeometry x="72.40000000000009" width="70" height="40" as="geometry">
            <mxRectangle width="70" height="40" as="alternateBounds" />
          </mxGeometry>
        </mxCell>
        <mxCell id="nzvuutYlS2IMm9SEW8wx-44" value="C(30)" style="shape=partialRectangle;connectable=0;fillColor=none;top=0;left=0;bottom=0;right=0;align=left;spacingLeft=6;overflow=hidden;whiteSpace=wrap;html=1;" vertex="1" parent="nzvuutYlS2IMm9SEW8wx-41">
          <mxGeometry x="142.4000000000001" width="69.99999999999991" height="40" as="geometry">
            <mxRectangle width="69.99999999999991" height="40" as="alternateBounds" />
          </mxGeometry>
        </mxCell>
        <mxCell id="nzvuutYlS2IMm9SEW8wx-45" value="" style="shape=tableRow;horizontal=0;startSize=0;swimlaneHead=0;swimlaneBody=0;fillColor=none;collapsible=0;dropTarget=0;points=[[0,0.5],[1,0.5]];portConstraint=eastwest;top=0;left=0;right=0;bottom=0;" vertex="1" parent="nzvuutYlS2IMm9SEW8wx-36">
          <mxGeometry y="100" width="212.4" height="30" as="geometry" />
        </mxCell>
        <mxCell id="nzvuutYlS2IMm9SEW8wx-46" style="shape=partialRectangle;connectable=0;fillColor=none;top=0;left=0;bottom=0;right=0;editable=1;overflow=hidden;whiteSpace=wrap;html=1;" vertex="1" parent="nzvuutYlS2IMm9SEW8wx-45">
          <mxGeometry width="72.40000000000009" height="30" as="geometry">
            <mxRectangle width="72.40000000000009" height="30" as="alternateBounds" />
          </mxGeometry>
        </mxCell>
        <mxCell id="nzvuutYlS2IMm9SEW8wx-47" value="&lt;span style=&quot;text-align: left;&quot;&gt;kar&lt;/span&gt;" style="shape=partialRectangle;connectable=0;fillColor=none;top=0;left=0;bottom=0;right=0;editable=1;overflow=hidden;whiteSpace=wrap;html=1;" vertex="1" parent="nzvuutYlS2IMm9SEW8wx-45">
          <mxGeometry x="72.40000000000009" width="70" height="30" as="geometry">
            <mxRectangle width="70" height="30" as="alternateBounds" />
          </mxGeometry>
        </mxCell>
        <mxCell id="nzvuutYlS2IMm9SEW8wx-48" value="C(20)" style="shape=partialRectangle;connectable=0;fillColor=none;top=0;left=0;bottom=0;right=0;align=left;spacingLeft=6;overflow=hidden;whiteSpace=wrap;html=1;" vertex="1" parent="nzvuutYlS2IMm9SEW8wx-45">
          <mxGeometry x="142.4000000000001" width="69.99999999999991" height="30" as="geometry">
            <mxRectangle width="69.99999999999991" height="30" as="alternateBounds" />
          </mxGeometry>
        </mxCell>
        <mxCell id="nzvuutYlS2IMm9SEW8wx-49" value="" style="shape=tableRow;horizontal=0;startSize=0;swimlaneHead=0;swimlaneBody=0;fillColor=none;collapsible=0;dropTarget=0;points=[[0,0.5],[1,0.5]];portConstraint=eastwest;top=0;left=0;right=0;bottom=0;" vertex="1" parent="nzvuutYlS2IMm9SEW8wx-36">
          <mxGeometry y="130" width="212.4" height="30" as="geometry" />
        </mxCell>
        <mxCell id="nzvuutYlS2IMm9SEW8wx-50" style="shape=partialRectangle;connectable=0;fillColor=none;top=0;left=0;bottom=0;right=0;editable=1;overflow=hidden;whiteSpace=wrap;html=1;" vertex="1" parent="nzvuutYlS2IMm9SEW8wx-49">
          <mxGeometry width="72.40000000000009" height="30" as="geometry">
            <mxRectangle width="72.40000000000009" height="30" as="alternateBounds" />
          </mxGeometry>
        </mxCell>
        <mxCell id="nzvuutYlS2IMm9SEW8wx-51" value="" style="shape=partialRectangle;connectable=0;fillColor=none;top=0;left=0;bottom=0;right=0;editable=1;overflow=hidden;whiteSpace=wrap;html=1;" vertex="1" parent="nzvuutYlS2IMm9SEW8wx-49">
          <mxGeometry x="72.40000000000009" width="70" height="30" as="geometry">
            <mxRectangle width="70" height="30" as="alternateBounds" />
          </mxGeometry>
        </mxCell>
        <mxCell id="nzvuutYlS2IMm9SEW8wx-52" value="" style="shape=partialRectangle;connectable=0;fillColor=none;top=0;left=0;bottom=0;right=0;align=left;spacingLeft=6;overflow=hidden;whiteSpace=wrap;html=1;" vertex="1" parent="nzvuutYlS2IMm9SEW8wx-49">
          <mxGeometry x="142.4000000000001" width="69.99999999999991" height="30" as="geometry">
            <mxRectangle width="69.99999999999991" height="30" as="alternateBounds" />
          </mxGeometry>
        </mxCell>
        <mxCell id="nzvuutYlS2IMm9SEW8wx-53" value="PK" style="shape=partialRectangle;connectable=0;fillColor=none;top=0;left=0;bottom=0;right=0;fontStyle=1;overflow=hidden;whiteSpace=wrap;html=1;" vertex="1" parent="1">
          <mxGeometry x="-352.4" y="800" width="30" height="30" as="geometry">
            <mxRectangle width="30" height="30" as="alternateBounds" />
          </mxGeometry>
        </mxCell>
        <mxCell id="nzvuutYlS2IMm9SEW8wx-54" value="Oktató" style="shape=table;startSize=30;container=1;collapsible=1;childLayout=tableLayout;fixedRows=1;rowLines=0;fontStyle=1;align=center;resizeLast=1;html=1;" vertex="1" parent="1">
          <mxGeometry x="-32.4" y="770" width="212.4" height="160" as="geometry" />
        </mxCell>
        <mxCell id="nzvuutYlS2IMm9SEW8wx-55" value="" style="shape=tableRow;horizontal=0;startSize=0;swimlaneHead=0;swimlaneBody=0;fillColor=none;collapsible=0;dropTarget=0;points=[[0,0.5],[1,0.5]];portConstraint=eastwest;top=0;left=0;right=0;bottom=1;" vertex="1" parent="nzvuutYlS2IMm9SEW8wx-54">
          <mxGeometry y="30" width="212.4" height="30" as="geometry" />
        </mxCell>
        <mxCell id="nzvuutYlS2IMm9SEW8wx-56" value="PK" style="shape=partialRectangle;connectable=0;fillColor=none;top=0;left=0;bottom=0;right=0;fontStyle=1;overflow=hidden;whiteSpace=wrap;html=1;" vertex="1" parent="nzvuutYlS2IMm9SEW8wx-55">
          <mxGeometry width="72.40000000000009" height="30" as="geometry">
            <mxRectangle width="72.40000000000009" height="30" as="alternateBounds" />
          </mxGeometry>
        </mxCell>
        <mxCell id="nzvuutYlS2IMm9SEW8wx-57" value="&lt;span style=&quot;text-align: left; text-decoration-line: underline;&quot;&gt;neptunkód&lt;/span&gt;" style="shape=partialRectangle;connectable=0;fillColor=none;top=0;left=0;bottom=0;right=0;fontStyle=1;overflow=hidden;whiteSpace=wrap;html=1;" vertex="1" parent="nzvuutYlS2IMm9SEW8wx-55">
          <mxGeometry x="72.40000000000009" width="70" height="30" as="geometry">
            <mxRectangle width="70" height="30" as="alternateBounds" />
          </mxGeometry>
        </mxCell>
        <mxCell id="nzvuutYlS2IMm9SEW8wx-58" value="&amp;nbsp;C(6)" style="shape=partialRectangle;connectable=0;fillColor=none;top=0;left=0;bottom=0;right=0;align=left;spacingLeft=6;fontStyle=5;overflow=hidden;whiteSpace=wrap;html=1;" vertex="1" parent="nzvuutYlS2IMm9SEW8wx-55">
          <mxGeometry x="142.4000000000001" width="69.99999999999991" height="30" as="geometry">
            <mxRectangle width="69.99999999999991" height="30" as="alternateBounds" />
          </mxGeometry>
        </mxCell>
        <mxCell id="nzvuutYlS2IMm9SEW8wx-59" value="" style="shape=tableRow;horizontal=0;startSize=0;swimlaneHead=0;swimlaneBody=0;fillColor=none;collapsible=0;dropTarget=0;points=[[0,0.5],[1,0.5]];portConstraint=eastwest;top=0;left=0;right=0;bottom=0;" vertex="1" parent="nzvuutYlS2IMm9SEW8wx-54">
          <mxGeometry y="60" width="212.4" height="40" as="geometry" />
        </mxCell>
        <mxCell id="nzvuutYlS2IMm9SEW8wx-60" style="shape=partialRectangle;connectable=0;fillColor=none;top=0;left=0;bottom=0;right=0;editable=1;overflow=hidden;whiteSpace=wrap;html=1;" vertex="1" parent="nzvuutYlS2IMm9SEW8wx-59">
          <mxGeometry width="72.40000000000009" height="40" as="geometry">
            <mxRectangle width="72.40000000000009" height="40" as="alternateBounds" />
          </mxGeometry>
        </mxCell>
        <mxCell id="nzvuutYlS2IMm9SEW8wx-61" value="&lt;span style=&quot;text-align: left;&quot;&gt;név&lt;/span&gt;" style="shape=partialRectangle;connectable=0;fillColor=none;top=0;left=0;bottom=0;right=0;editable=1;overflow=hidden;whiteSpace=wrap;html=1;" vertex="1" parent="nzvuutYlS2IMm9SEW8wx-59">
          <mxGeometry x="72.40000000000009" width="70" height="40" as="geometry">
            <mxRectangle width="70" height="40" as="alternateBounds" />
          </mxGeometry>
        </mxCell>
        <mxCell id="nzvuutYlS2IMm9SEW8wx-62" value="C(30)" style="shape=partialRectangle;connectable=0;fillColor=none;top=0;left=0;bottom=0;right=0;align=left;spacingLeft=6;overflow=hidden;whiteSpace=wrap;html=1;" vertex="1" parent="nzvuutYlS2IMm9SEW8wx-59">
          <mxGeometry x="142.4000000000001" width="69.99999999999991" height="40" as="geometry">
            <mxRectangle width="69.99999999999991" height="40" as="alternateBounds" />
          </mxGeometry>
        </mxCell>
        <mxCell id="nzvuutYlS2IMm9SEW8wx-63" value="" style="shape=tableRow;horizontal=0;startSize=0;swimlaneHead=0;swimlaneBody=0;fillColor=none;collapsible=0;dropTarget=0;points=[[0,0.5],[1,0.5]];portConstraint=eastwest;top=0;left=0;right=0;bottom=0;" vertex="1" parent="nzvuutYlS2IMm9SEW8wx-54">
          <mxGeometry y="100" width="212.4" height="30" as="geometry" />
        </mxCell>
        <mxCell id="nzvuutYlS2IMm9SEW8wx-64" style="shape=partialRectangle;connectable=0;fillColor=none;top=0;left=0;bottom=0;right=0;editable=1;overflow=hidden;whiteSpace=wrap;html=1;" vertex="1" parent="nzvuutYlS2IMm9SEW8wx-63">
          <mxGeometry width="72.40000000000009" height="30" as="geometry">
            <mxRectangle width="72.40000000000009" height="30" as="alternateBounds" />
          </mxGeometry>
        </mxCell>
        <mxCell id="nzvuutYlS2IMm9SEW8wx-65" value="&lt;span style=&quot;text-align: left;&quot;&gt;beosztás&lt;/span&gt;" style="shape=partialRectangle;connectable=0;fillColor=none;top=0;left=0;bottom=0;right=0;editable=1;overflow=hidden;whiteSpace=wrap;html=1;" vertex="1" parent="nzvuutYlS2IMm9SEW8wx-63">
          <mxGeometry x="72.40000000000009" width="70" height="30" as="geometry">
            <mxRectangle width="70" height="30" as="alternateBounds" />
          </mxGeometry>
        </mxCell>
        <mxCell id="nzvuutYlS2IMm9SEW8wx-66" value="C(20)" style="shape=partialRectangle;connectable=0;fillColor=none;top=0;left=0;bottom=0;right=0;align=left;spacingLeft=6;overflow=hidden;whiteSpace=wrap;html=1;" vertex="1" parent="nzvuutYlS2IMm9SEW8wx-63">
          <mxGeometry x="142.4000000000001" width="69.99999999999991" height="30" as="geometry">
            <mxRectangle width="69.99999999999991" height="30" as="alternateBounds" />
          </mxGeometry>
        </mxCell>
        <mxCell id="nzvuutYlS2IMm9SEW8wx-67" value="" style="shape=tableRow;horizontal=0;startSize=0;swimlaneHead=0;swimlaneBody=0;fillColor=none;collapsible=0;dropTarget=0;points=[[0,0.5],[1,0.5]];portConstraint=eastwest;top=0;left=0;right=0;bottom=0;" vertex="1" parent="nzvuutYlS2IMm9SEW8wx-54">
          <mxGeometry y="130" width="212.4" height="30" as="geometry" />
        </mxCell>
        <mxCell id="nzvuutYlS2IMm9SEW8wx-68" value="&lt;b&gt;FK&lt;/b&gt;" style="shape=partialRectangle;connectable=0;fillColor=none;top=0;left=0;bottom=0;right=0;editable=1;overflow=hidden;whiteSpace=wrap;html=1;" vertex="1" parent="nzvuutYlS2IMm9SEW8wx-67">
          <mxGeometry width="72.40000000000009" height="30" as="geometry">
            <mxRectangle width="72.40000000000009" height="30" as="alternateBounds" />
          </mxGeometry>
        </mxCell>
        <mxCell id="nzvuutYlS2IMm9SEW8wx-69" value="tanszék kód" style="shape=partialRectangle;connectable=0;fillColor=none;top=0;left=0;bottom=0;right=0;editable=1;overflow=hidden;whiteSpace=wrap;html=1;" vertex="1" parent="nzvuutYlS2IMm9SEW8wx-67">
          <mxGeometry x="72.40000000000009" width="70" height="30" as="geometry">
            <mxRectangle width="70" height="30" as="alternateBounds" />
          </mxGeometry>
        </mxCell>
        <mxCell id="nzvuutYlS2IMm9SEW8wx-70" value="C(10)" style="shape=partialRectangle;connectable=0;fillColor=none;top=0;left=0;bottom=0;right=0;align=left;spacingLeft=6;overflow=hidden;whiteSpace=wrap;html=1;" vertex="1" parent="nzvuutYlS2IMm9SEW8wx-67">
          <mxGeometry x="142.4000000000001" width="69.99999999999991" height="30" as="geometry">
            <mxRectangle width="69.99999999999991" height="30" as="alternateBounds" />
          </mxGeometry>
        </mxCell>
        <mxCell id="nzvuutYlS2IMm9SEW8wx-71" value="Tantárgy" style="shape=table;startSize=30;container=1;collapsible=1;childLayout=tableLayout;fixedRows=1;rowLines=0;fontStyle=1;align=center;resizeLast=1;html=1;" vertex="1" parent="1">
          <mxGeometry x="532.6" y="770" width="212.4" height="160" as="geometry" />
        </mxCell>
        <mxCell id="nzvuutYlS2IMm9SEW8wx-72" value="" style="shape=tableRow;horizontal=0;startSize=0;swimlaneHead=0;swimlaneBody=0;fillColor=none;collapsible=0;dropTarget=0;points=[[0,0.5],[1,0.5]];portConstraint=eastwest;top=0;left=0;right=0;bottom=1;" vertex="1" parent="nzvuutYlS2IMm9SEW8wx-71">
          <mxGeometry y="30" width="212.4" height="30" as="geometry" />
        </mxCell>
        <mxCell id="nzvuutYlS2IMm9SEW8wx-73" value="PK" style="shape=partialRectangle;connectable=0;fillColor=none;top=0;left=0;bottom=0;right=0;fontStyle=1;overflow=hidden;whiteSpace=wrap;html=1;" vertex="1" parent="nzvuutYlS2IMm9SEW8wx-72">
          <mxGeometry width="72.40000000000009" height="30" as="geometry">
            <mxRectangle width="72.40000000000009" height="30" as="alternateBounds" />
          </mxGeometry>
        </mxCell>
        <mxCell id="nzvuutYlS2IMm9SEW8wx-74" value="&lt;span style=&quot;text-align: left; text-decoration-line: underline;&quot;&gt;neptunkód&lt;/span&gt;" style="shape=partialRectangle;connectable=0;fillColor=none;top=0;left=0;bottom=0;right=0;fontStyle=1;overflow=hidden;whiteSpace=wrap;html=1;" vertex="1" parent="nzvuutYlS2IMm9SEW8wx-72">
          <mxGeometry x="72.40000000000009" width="75" height="30" as="geometry">
            <mxRectangle width="75" height="30" as="alternateBounds" />
          </mxGeometry>
        </mxCell>
        <mxCell id="nzvuutYlS2IMm9SEW8wx-75" value="&amp;nbsp;C(6)" style="shape=partialRectangle;connectable=0;fillColor=none;top=0;left=0;bottom=0;right=0;align=left;spacingLeft=6;fontStyle=5;overflow=hidden;whiteSpace=wrap;html=1;" vertex="1" parent="nzvuutYlS2IMm9SEW8wx-72">
          <mxGeometry x="147.4000000000001" width="64.99999999999991" height="30" as="geometry">
            <mxRectangle width="64.99999999999991" height="30" as="alternateBounds" />
          </mxGeometry>
        </mxCell>
        <mxCell id="nzvuutYlS2IMm9SEW8wx-76" value="" style="shape=tableRow;horizontal=0;startSize=0;swimlaneHead=0;swimlaneBody=0;fillColor=none;collapsible=0;dropTarget=0;points=[[0,0.5],[1,0.5]];portConstraint=eastwest;top=0;left=0;right=0;bottom=0;" vertex="1" parent="nzvuutYlS2IMm9SEW8wx-71">
          <mxGeometry y="60" width="212.4" height="40" as="geometry" />
        </mxCell>
        <mxCell id="nzvuutYlS2IMm9SEW8wx-77" style="shape=partialRectangle;connectable=0;fillColor=none;top=0;left=0;bottom=0;right=0;editable=1;overflow=hidden;whiteSpace=wrap;html=1;" vertex="1" parent="nzvuutYlS2IMm9SEW8wx-76">
          <mxGeometry width="72.40000000000009" height="40" as="geometry">
            <mxRectangle width="72.40000000000009" height="40" as="alternateBounds" />
          </mxGeometry>
        </mxCell>
        <mxCell id="nzvuutYlS2IMm9SEW8wx-78" value="&lt;span style=&quot;text-align: left;&quot;&gt;név&lt;/span&gt;" style="shape=partialRectangle;connectable=0;fillColor=none;top=0;left=0;bottom=0;right=0;editable=1;overflow=hidden;whiteSpace=wrap;html=1;" vertex="1" parent="nzvuutYlS2IMm9SEW8wx-76">
          <mxGeometry x="72.40000000000009" width="75" height="40" as="geometry">
            <mxRectangle width="75" height="40" as="alternateBounds" />
          </mxGeometry>
        </mxCell>
        <mxCell id="nzvuutYlS2IMm9SEW8wx-79" value="C(30)" style="shape=partialRectangle;connectable=0;fillColor=none;top=0;left=0;bottom=0;right=0;align=left;spacingLeft=6;overflow=hidden;whiteSpace=wrap;html=1;" vertex="1" parent="nzvuutYlS2IMm9SEW8wx-76">
          <mxGeometry x="147.4000000000001" width="64.99999999999991" height="40" as="geometry">
            <mxRectangle width="64.99999999999991" height="40" as="alternateBounds" />
          </mxGeometry>
        </mxCell>
        <mxCell id="nzvuutYlS2IMm9SEW8wx-80" value="" style="shape=tableRow;horizontal=0;startSize=0;swimlaneHead=0;swimlaneBody=0;fillColor=none;collapsible=0;dropTarget=0;points=[[0,0.5],[1,0.5]];portConstraint=eastwest;top=0;left=0;right=0;bottom=0;" vertex="1" parent="nzvuutYlS2IMm9SEW8wx-71">
          <mxGeometry y="100" width="212.4" height="30" as="geometry" />
        </mxCell>
        <mxCell id="nzvuutYlS2IMm9SEW8wx-81" style="shape=partialRectangle;connectable=0;fillColor=none;top=0;left=0;bottom=0;right=0;editable=1;overflow=hidden;whiteSpace=wrap;html=1;" vertex="1" parent="nzvuutYlS2IMm9SEW8wx-80">
          <mxGeometry width="72.40000000000009" height="30" as="geometry">
            <mxRectangle width="72.40000000000009" height="30" as="alternateBounds" />
          </mxGeometry>
        </mxCell>
        <mxCell id="nzvuutYlS2IMm9SEW8wx-82" value="&lt;span style=&quot;text-align: left;&quot;&gt;kredit&lt;/span&gt;" style="shape=partialRectangle;connectable=0;fillColor=none;top=0;left=0;bottom=0;right=0;editable=1;overflow=hidden;whiteSpace=wrap;html=1;" vertex="1" parent="nzvuutYlS2IMm9SEW8wx-80">
          <mxGeometry x="72.40000000000009" width="75" height="30" as="geometry">
            <mxRectangle width="75" height="30" as="alternateBounds" />
          </mxGeometry>
        </mxCell>
        <mxCell id="nzvuutYlS2IMm9SEW8wx-83" value="&lt;font style=&quot;vertical-align: inherit;&quot;&gt;&lt;font style=&quot;vertical-align: inherit;&quot;&gt;&lt;font style=&quot;vertical-align: inherit;&quot;&gt;&lt;font style=&quot;vertical-align: inherit;&quot;&gt;&lt;font style=&quot;vertical-align: inherit;&quot;&gt;&lt;font style=&quot;vertical-align: inherit;&quot;&gt;N(2)&lt;/font&gt;&lt;/font&gt;&lt;/font&gt;&lt;/font&gt;&lt;/font&gt;&lt;/font&gt;" style="shape=partialRectangle;connectable=0;fillColor=none;top=0;left=0;bottom=0;right=0;align=left;spacingLeft=6;overflow=hidden;whiteSpace=wrap;html=1;" vertex="1" parent="nzvuutYlS2IMm9SEW8wx-80">
          <mxGeometry x="147.4000000000001" width="64.99999999999991" height="30" as="geometry">
            <mxRectangle width="64.99999999999991" height="30" as="alternateBounds" />
          </mxGeometry>
        </mxCell>
        <mxCell id="nzvuutYlS2IMm9SEW8wx-84" value="" style="shape=tableRow;horizontal=0;startSize=0;swimlaneHead=0;swimlaneBody=0;fillColor=none;collapsible=0;dropTarget=0;points=[[0,0.5],[1,0.5]];portConstraint=eastwest;top=0;left=0;right=0;bottom=0;" vertex="1" parent="nzvuutYlS2IMm9SEW8wx-71">
          <mxGeometry y="130" width="212.4" height="30" as="geometry" />
        </mxCell>
        <mxCell id="nzvuutYlS2IMm9SEW8wx-85" style="shape=partialRectangle;connectable=0;fillColor=none;top=0;left=0;bottom=0;right=0;editable=1;overflow=hidden;whiteSpace=wrap;html=1;" vertex="1" parent="nzvuutYlS2IMm9SEW8wx-84">
          <mxGeometry width="72.40000000000009" height="30" as="geometry">
            <mxRectangle width="72.40000000000009" height="30" as="alternateBounds" />
          </mxGeometry>
        </mxCell>
        <mxCell id="nzvuutYlS2IMm9SEW8wx-86" value="&lt;span style=&quot;text-align: left;&quot;&gt;lezárás módja&lt;/span&gt;" style="shape=partialRectangle;connectable=0;fillColor=none;top=0;left=0;bottom=0;right=0;editable=1;overflow=hidden;whiteSpace=wrap;html=1;" vertex="1" parent="nzvuutYlS2IMm9SEW8wx-84">
          <mxGeometry x="72.40000000000009" width="75" height="30" as="geometry">
            <mxRectangle width="75" height="30" as="alternateBounds" />
          </mxGeometry>
        </mxCell>
        <mxCell id="nzvuutYlS2IMm9SEW8wx-87" value="C(10)" style="shape=partialRectangle;connectable=0;fillColor=none;top=0;left=0;bottom=0;right=0;align=left;spacingLeft=6;overflow=hidden;whiteSpace=wrap;html=1;" vertex="1" parent="nzvuutYlS2IMm9SEW8wx-84">
          <mxGeometry x="147.4000000000001" width="64.99999999999991" height="30" as="geometry">
            <mxRectangle width="64.99999999999991" height="30" as="alternateBounds" />
          </mxGeometry>
        </mxCell>
        <mxCell id="nzvuutYlS2IMm9SEW8wx-88" value="" style="endArrow=none;html=1;rounded=0;exitX=0.997;exitY=0.283;exitDx=0;exitDy=0;entryX=0.004;entryY=0.357;entryDx=0;entryDy=0;entryPerimeter=0;exitPerimeter=0;" edge="1" parent="1" source="nzvuutYlS2IMm9SEW8wx-37" target="nzvuutYlS2IMm9SEW8wx-67">
          <mxGeometry width="50" height="50" relative="1" as="geometry">
            <mxPoint x="-262.4" y="850" as="sourcePoint" />
            <mxPoint x="-32.4" y="920" as="targetPoint" />
          </mxGeometry>
        </mxCell>
        <mxCell id="nzvuutYlS2IMm9SEW8wx-89" value="Oktató-Tantárgy" style="shape=table;startSize=30;container=1;collapsible=1;childLayout=tableLayout;fixedRows=1;rowLines=0;fontStyle=1;align=center;resizeLast=1;html=1;" vertex="1" parent="1">
          <mxGeometry x="242.6" y="780" width="215" height="150" as="geometry" />
        </mxCell>
        <mxCell id="nzvuutYlS2IMm9SEW8wx-90" value="" style="shape=tableRow;horizontal=0;startSize=0;swimlaneHead=0;swimlaneBody=0;fillColor=none;collapsible=0;dropTarget=0;points=[[0,0.5],[1,0.5]];portConstraint=eastwest;top=0;left=0;right=0;bottom=1;" vertex="1" parent="nzvuutYlS2IMm9SEW8wx-89">
          <mxGeometry y="30" width="215" height="20" as="geometry" />
        </mxCell>
        <mxCell id="nzvuutYlS2IMm9SEW8wx-91" value="" style="shape=partialRectangle;connectable=0;fillColor=none;top=0;left=0;bottom=0;right=0;fontStyle=1;overflow=hidden;whiteSpace=wrap;html=1;" vertex="1" parent="nzvuutYlS2IMm9SEW8wx-90">
          <mxGeometry width="47.40000000000009" height="20" as="geometry">
            <mxRectangle width="47.40000000000009" height="20" as="alternateBounds" />
          </mxGeometry>
        </mxCell>
        <mxCell id="nzvuutYlS2IMm9SEW8wx-92" value="" style="shape=partialRectangle;connectable=0;fillColor=none;top=0;left=0;bottom=0;right=0;fontStyle=1;overflow=hidden;whiteSpace=wrap;html=1;" vertex="1" parent="nzvuutYlS2IMm9SEW8wx-90">
          <mxGeometry x="47.40000000000009" width="107.59999999999991" height="20" as="geometry">
            <mxRectangle width="107.59999999999991" height="20" as="alternateBounds" />
          </mxGeometry>
        </mxCell>
        <mxCell id="nzvuutYlS2IMm9SEW8wx-93" value="" style="shape=partialRectangle;connectable=0;fillColor=none;top=0;left=0;bottom=0;right=0;align=left;spacingLeft=6;fontStyle=5;overflow=hidden;whiteSpace=wrap;html=1;" vertex="1" parent="nzvuutYlS2IMm9SEW8wx-90">
          <mxGeometry x="155" width="60" height="20" as="geometry">
            <mxRectangle width="60" height="20" as="alternateBounds" />
          </mxGeometry>
        </mxCell>
        <mxCell id="nzvuutYlS2IMm9SEW8wx-94" value="" style="shape=tableRow;horizontal=0;startSize=0;swimlaneHead=0;swimlaneBody=0;fillColor=none;collapsible=0;dropTarget=0;points=[[0,0.5],[1,0.5]];portConstraint=eastwest;top=0;left=0;right=0;bottom=0;" vertex="1" parent="nzvuutYlS2IMm9SEW8wx-89">
          <mxGeometry y="50" width="215" height="40" as="geometry" />
        </mxCell>
        <mxCell id="nzvuutYlS2IMm9SEW8wx-95" value="&lt;b&gt;&lt;font style=&quot;vertical-align: inherit;&quot;&gt;&lt;font style=&quot;vertical-align: inherit;&quot;&gt;PK,FK&lt;/font&gt;&lt;/font&gt;&lt;/b&gt;" style="shape=partialRectangle;connectable=0;fillColor=none;top=0;left=0;bottom=0;right=0;editable=1;overflow=hidden;whiteSpace=wrap;html=1;" vertex="1" parent="nzvuutYlS2IMm9SEW8wx-94">
          <mxGeometry width="47.40000000000009" height="40" as="geometry">
            <mxRectangle width="47.40000000000009" height="40" as="alternateBounds" />
          </mxGeometry>
        </mxCell>
        <mxCell id="nzvuutYlS2IMm9SEW8wx-96" value="&lt;span style=&quot;text-align: left;&quot;&gt;oktató neptunkód&lt;/span&gt;" style="shape=partialRectangle;connectable=0;fillColor=none;top=0;left=0;bottom=0;right=0;editable=1;overflow=hidden;whiteSpace=wrap;html=1;" vertex="1" parent="nzvuutYlS2IMm9SEW8wx-94">
          <mxGeometry x="47.40000000000009" width="107.59999999999991" height="40" as="geometry">
            <mxRectangle width="107.59999999999991" height="40" as="alternateBounds" />
          </mxGeometry>
        </mxCell>
        <mxCell id="nzvuutYlS2IMm9SEW8wx-97" value="C(6)" style="shape=partialRectangle;connectable=0;fillColor=none;top=0;left=0;bottom=0;right=0;align=left;spacingLeft=6;overflow=hidden;whiteSpace=wrap;html=1;" vertex="1" parent="nzvuutYlS2IMm9SEW8wx-94">
          <mxGeometry x="155" width="60" height="40" as="geometry">
            <mxRectangle width="60" height="40" as="alternateBounds" />
          </mxGeometry>
        </mxCell>
        <mxCell id="nzvuutYlS2IMm9SEW8wx-98" value="" style="shape=tableRow;horizontal=0;startSize=0;swimlaneHead=0;swimlaneBody=0;fillColor=none;collapsible=0;dropTarget=0;points=[[0,0.5],[1,0.5]];portConstraint=eastwest;top=0;left=0;right=0;bottom=0;" vertex="1" parent="nzvuutYlS2IMm9SEW8wx-89">
          <mxGeometry y="90" width="215" height="30" as="geometry" />
        </mxCell>
        <mxCell id="nzvuutYlS2IMm9SEW8wx-99" value="&lt;b&gt;PK,FK&lt;/b&gt;" style="shape=partialRectangle;connectable=0;fillColor=none;top=0;left=0;bottom=0;right=0;editable=1;overflow=hidden;whiteSpace=wrap;html=1;" vertex="1" parent="nzvuutYlS2IMm9SEW8wx-98">
          <mxGeometry width="47.40000000000009" height="30" as="geometry">
            <mxRectangle width="47.40000000000009" height="30" as="alternateBounds" />
          </mxGeometry>
        </mxCell>
        <mxCell id="nzvuutYlS2IMm9SEW8wx-100" value="&lt;span style=&quot;text-align: left;&quot;&gt;tantárgy neptunkód&lt;/span&gt;" style="shape=partialRectangle;connectable=0;fillColor=none;top=0;left=0;bottom=0;right=0;editable=1;overflow=hidden;whiteSpace=wrap;html=1;" vertex="1" parent="nzvuutYlS2IMm9SEW8wx-98">
          <mxGeometry x="47.40000000000009" width="107.59999999999991" height="30" as="geometry">
            <mxRectangle width="107.59999999999991" height="30" as="alternateBounds" />
          </mxGeometry>
        </mxCell>
        <mxCell id="nzvuutYlS2IMm9SEW8wx-101" value="C(6)" style="shape=partialRectangle;connectable=0;fillColor=none;top=0;left=0;bottom=0;right=0;align=left;spacingLeft=6;overflow=hidden;whiteSpace=wrap;html=1;" vertex="1" parent="nzvuutYlS2IMm9SEW8wx-98">
          <mxGeometry x="155" width="60" height="30" as="geometry">
            <mxRectangle width="60" height="30" as="alternateBounds" />
          </mxGeometry>
        </mxCell>
        <mxCell id="nzvuutYlS2IMm9SEW8wx-102" value="" style="shape=tableRow;horizontal=0;startSize=0;swimlaneHead=0;swimlaneBody=0;fillColor=none;collapsible=0;dropTarget=0;points=[[0,0.5],[1,0.5]];portConstraint=eastwest;top=0;left=0;right=0;bottom=0;" vertex="1" parent="nzvuutYlS2IMm9SEW8wx-89">
          <mxGeometry y="120" width="215" height="30" as="geometry" />
        </mxCell>
        <mxCell id="nzvuutYlS2IMm9SEW8wx-103" style="shape=partialRectangle;connectable=0;fillColor=none;top=0;left=0;bottom=0;right=0;editable=1;overflow=hidden;whiteSpace=wrap;html=1;" vertex="1" parent="nzvuutYlS2IMm9SEW8wx-102">
          <mxGeometry width="47.40000000000009" height="30" as="geometry">
            <mxRectangle width="47.40000000000009" height="30" as="alternateBounds" />
          </mxGeometry>
        </mxCell>
        <mxCell id="nzvuutYlS2IMm9SEW8wx-104" value="félév/tanév" style="shape=partialRectangle;connectable=0;fillColor=none;top=0;left=0;bottom=0;right=0;editable=1;overflow=hidden;whiteSpace=wrap;html=1;" vertex="1" parent="nzvuutYlS2IMm9SEW8wx-102">
          <mxGeometry x="47.40000000000009" width="107.59999999999991" height="30" as="geometry">
            <mxRectangle width="107.59999999999991" height="30" as="alternateBounds" />
          </mxGeometry>
        </mxCell>
        <mxCell id="nzvuutYlS2IMm9SEW8wx-105" value="C(10)" style="shape=partialRectangle;connectable=0;fillColor=none;top=0;left=0;bottom=0;right=0;align=left;spacingLeft=6;overflow=hidden;whiteSpace=wrap;html=1;" vertex="1" parent="nzvuutYlS2IMm9SEW8wx-102">
          <mxGeometry x="155" width="60" height="30" as="geometry">
            <mxRectangle width="60" height="30" as="alternateBounds" />
          </mxGeometry>
        </mxCell>
        <mxCell id="nzvuutYlS2IMm9SEW8wx-106" value="" style="endArrow=none;html=1;rounded=0;entryX=-0.01;entryY=0.387;entryDx=0;entryDy=0;entryPerimeter=0;exitX=1.004;exitY=0.659;exitDx=0;exitDy=0;exitPerimeter=0;" edge="1" parent="1" source="nzvuutYlS2IMm9SEW8wx-55" target="nzvuutYlS2IMm9SEW8wx-94">
          <mxGeometry width="50" height="50" relative="1" as="geometry">
            <mxPoint x="179.99999999999997" y="820" as="sourcePoint" />
            <mxPoint x="237.6" y="850" as="targetPoint" />
          </mxGeometry>
        </mxCell>
        <mxCell id="nzvuutYlS2IMm9SEW8wx-107" value="" style="endArrow=none;html=1;rounded=0;entryX=0;entryY=0.5;entryDx=0;entryDy=0;exitX=1.001;exitY=0.193;exitDx=0;exitDy=0;exitPerimeter=0;" edge="1" parent="1" source="nzvuutYlS2IMm9SEW8wx-98" target="nzvuutYlS2IMm9SEW8wx-72">
          <mxGeometry width="50" height="50" relative="1" as="geometry">
            <mxPoint x="467.6" y="870" as="sourcePoint" />
            <mxPoint x="512.6" y="935" as="targetPoint" />
          </mxGeometry>
        </mxCell>
      </root>
    </mxGraphModel>
  </diagram>
</mxfile>
